<svg version="1.0" xmlns="http://www.w3.org/2000/svg" width="1024pt" height="1024pt"
     viewBox="0 0 1024 1024" preserveAspectRatio="xMidYMid meet">

    <g transform="translate(0,1024) scale(0.1,-0.1)" fill="#326ce5 " stroke="none">
        <path d="M5720 9524 c-217 -35 -433 -86 -515 -124 -11 -4 -45 -16 -75 -26 -72 -22 -226 -92 -355 -161 -119 -64 -336 -214 -426 -295 -14 -13 -54 -48 -88 -78 -125 -110 -340 -373 -443 -540 -25 -41 -67 -118 -93 -170 -26 -52 -48 -96 -50 -98 -1 -1 -46 20 -99 49 -147 77 -296 125 -516 166 -121 22 -439 13 -565 -16 -406 -93 -727 -298 -975 -626 -163 -215 -264 -455 -305 -725 -23 -151 -19 -398 10 -566 5 -30 3 -33 -45 -53 -258 -111 -407 -210 -593 -394 -252 -250 -412 -556 -493 -944 -24 -114 -27 -150 -28 -333 0 -154 4 -224 16 -280 9 -41 19 -93 23 -115 30 -183 155 -482 272 -650 91 -130 144 -190 262 -299 179 -163 433 -317 574 -348 35 -7 510 -9 1604 -6 854 3 1555 7 1557 9 2 2 12 31 24 64 20 61 120 334 174 480 16 44 36 100 43 125 7 25 25 77 40 115 35 93 99 276 142 404 19 58 39 113 44 123 8 14 3 27 -20 56 -17 20 -42 64 -57 97 -24 52 -28 73 -28 160 -1 97 0 104 37 177 42 85 94 138 181 184 l54 28 -56 31 c-32 17 -113 62 -182 98 -69 37 -132 72 -140 77 -8 5 -127 72 -265 149 -404 224 -516 291 -511 306 44 113 320 669 390 785 12 19 28 48 36 65 28 56 146 250 214 352 78 116 65 113 184 44 106 -61 276 -156 287 -160 5 -2 17 -9 25 -16 8 -7 44 -28 80 -47 97 -53 140 -77 190 -108 25 -15 97 -57 160 -93 63 -36 277 -158 475 -272 198 -114 401 -231 450 -260 50 -28 142 -83 205 -121 63 -39 150 -88 193 -109 43 -21 80 -42 83 -46 2 -4 -18 -46 -46 -94 -27 -48 -50 -88 -50 -89 0 -2 -25 -44 -55 -94 -30 -50 -68 -115 -84 -144 -29 -53 -202 -353 -301 -523 -29 -49 -75 -128 -102 -175 -80 -137 -60 -131 -180 -64 -189 106 -262 146 -363 199 l-100 53 4 -113 c4 -127 -9 -181 -59 -257 l-30 -45 131 -384 c255 -749 311 -914 316 -936 3 -13 6 -23 7 -24 0 0 623 -2 1382 -5 1037 -4 1392 -3 1425 6 110 30 336 161 480 278 316 257 549 656 631 1081 19 98 22 149 22 331 0 185 -3 230 -22 320 -105 489 -342 868 -712 1136 -71 51 -184 124 -193 124 -4 0 -24 11 -45 23 -20 13 -73 38 -117 55 -93 36 -87 12 -62 237 28 249 27 466 -3 715 -54 444 -236 894 -513 1270 -262 356 -582 619 -989 814 -247 118 -472 190 -729 232 -147 24 -616 29 -749 8z m-1815 -2062 c22 -14 49 -30 60 -36 117 -64 625 -374 625 -382 0 -1 -30 -33 -68 -70 -65 -67 -95 -107 -217 -299 -182 -283 -536 -1005 -560 -1140 -13 -69 -16 -69 -133 -1 -102 60 -242 137 -362 199 -30 15 -62 32 -70 37 -8 5 -61 35 -118 67 l-104 57 7 71 c20 213 159 604 312 874 29 51 53 96 53 98 0 11 165 246 225 320 37 46 111 121 166 168 111 94 97 91 184 37z m3247 -1510 c3 -8 193 -136 213 -143 43 -17 192 -107 220 -134 39 -36 40 -70 1 -60 -11 2 -15 2 -8 -1 17 -8 15 -24 -3 -24 -8 0 -15 -4 -15 -10 0 -5 -10 -10 -23 -10 -17 0 -32 -16 -64 -67 -43 -69 -45 -83 -14 -83 9 0 22 -5 29 -12 17 -17 15 -67 -3 -74 -8 -4 -15 -15 -15 -25 0 -28 -51 -25 -82 4 l-25 23 -29 -50 c-52 -91 -97 -170 -124 -221 -28 -52 -60 -109 -90 -160 -9 -16 -31 -55 -47 -85 -117 -214 -376 -665 -449 -782 l-25 -39 -32 20 c-18 12 -110 65 -204 118 -95 53 -173 100 -173 105 0 14 56 122 129 248 40 69 120 208 178 310 137 241 135 237 170 295 101 169 243 420 303 536 l39 76 -30 17 c-41 24 -52 48 -33 74 12 17 25 22 63 22 45 0 50 2 64 33 8 17 20 49 27 70 8 25 17 37 30 37 10 0 20 -4 22 -8z m133 -1222 c17 -9 70 -40 119 -69 49 -28 90 -51 91 -51 3 0 309 -173 462 -261 62 -35 113 -69 113 -74 0 -24 -137 -265 -151 -265 -15 0 -131 60 -349 183 -113 63 -263 147 -335 187 -203 112 -208 117 -201 151 10 52 82 183 130 236 l19 23 36 -21 c20 -12 50 -29 66 -39z m1059 -435 c152 -101 216 -147 216 -156 0 -4 -40 -74 -89 -156 -48 -81 -113 -193 -144 -248 -31 -55 -62 -108 -69 -119 -13 -17 -25 -12 -194 89 -98 59 -182 111 -187 114 -4 4 21 36 55 72 35 35 74 80 88 99 60 83 150 245 150 272 0 27 43 98 59 98 9 0 61 -29 115 -65z"/>
        <path d="M5156 4101 c-27 -5 -33 -16 -73 -121 -39 -103 -244 -700 -310 -905 -14 -44 -48 -145 -75 -225 -27 -80 -65 -194 -85 -255 -19 -60 -78 -238 -129 -395 -143 -434 -210 -640 -228 -696 -8 -27 -18 -58 -22 -67 -6 -15 6 -17 135 -17 137 0 142 1 150 23 5 12 58 173 119 357 l110 335 422 0 422 0 19 -55 c11 -30 44 -134 74 -230 29 -96 70 -231 92 -300 l38 -125 144 -3 c134 -2 143 -1 136 15 -3 10 -17 54 -30 98 -65 225 -101 341 -135 445 -21 63 -55 169 -75 235 -21 66 -55 174 -76 240 -21 66 -48 152 -60 190 -30 97 -68 216 -283 870 -103 314 -189 576 -191 583 -5 13 -40 14 -89 3z m52 -723 c11 -35 37 -117 57 -183 20 -66 54 -172 75 -235 20 -63 56 -176 80 -250 23 -74 52 -166 65 -205 13 -38 28 -90 35 -115 6 -25 13 -53 16 -62 5 -17 -17 -18 -366 -18 l-371 0 6 23 c8 26 55 173 65 202 4 11 53 155 108 320 82 246 172 509 197 573 8 21 13 14 33 -50z"/>
    </g>

</svg>
